<svg xmlns="http://www.w3.org/2000/svg" width="49" height="54" fill="none"><path d="M13.639 53.576c-2.944 0-5.377-.661-7.296-1.984-1.878-1.323-3.286-3.136-4.224-5.44C1.222 43.848.774 41.224.774 38.28V15.944c0-3.03.448-5.675 1.345-7.936.895-2.304 2.282-4.096 4.16-5.376 1.92-1.28 4.373-1.92 7.36-1.92 2.986 0 5.418.64 7.296 1.92 1.877 1.28 3.264 3.072 4.16 5.376.896 2.261 1.344 4.907 1.344 7.936V38.28c0 2.987-.47 5.632-1.409 7.936-.896 2.304-2.282 4.117-4.16 5.44-1.877 1.28-4.288 1.92-7.232 1.92zm0-5.632c1.62 0 2.837-.47 3.648-1.408.853-.939 1.429-2.133 1.728-3.584.34-1.493.511-3.03.511-4.608V15.88c0-1.664-.149-3.221-.448-4.672-.298-1.493-.874-2.688-1.727-3.584-.811-.896-2.048-1.344-3.712-1.344-1.664 0-2.923.448-3.776 1.344-.854.896-1.43 2.09-1.729 3.584-.298 1.45-.448 3.008-.448 4.672v22.464c0 1.579.15 3.115.448 4.608.342 1.45.94 2.645 1.793 3.584.896.939 2.133 1.408 3.712 1.408zM41.569 53V10.12c-.043.043-.533.17-1.472.384-.896.213-1.92.427-3.072.64a550.04 550.04 0 00-3.072.576c-.896.17-1.365.256-1.408.256V6.792c.725-.17 1.557-.405 2.496-.704A27.37 27.37 0 0037.985 5a14.598 14.598 0 002.88-1.6 9.896 9.896 0 002.368-2.24h5.184V53h-6.848z" fill="#B8BABC"/></svg>