<svg xmlns="http://www.w3.org/2000/svg" width="59" height="54" fill="none"><path d="M13.451 53.576c-2.944 0-5.376-.661-7.296-1.984-1.877-1.323-3.285-3.136-4.224-5.44C1.035 43.848.587 41.224.587 38.28V15.944c0-3.03.448-5.675 1.344-7.936.896-2.304 2.283-4.096 4.16-5.376 1.92-1.28 4.373-1.92 7.36-1.92s5.419.64 7.296 1.92c1.877 1.28 3.264 3.072 4.16 5.376.896 2.261 1.344 4.907 1.344 7.936V38.28c0 2.987-.47 5.632-1.408 7.936-.896 2.304-2.283 4.117-4.16 5.44-1.877 1.28-4.288 1.92-7.232 1.92zm0-5.632c1.621 0 2.837-.47 3.648-1.408.853-.939 1.43-2.133 1.728-3.584.341-1.493.512-3.03.512-4.608V15.88c0-1.664-.15-3.221-.448-4.672-.299-1.493-.875-2.688-1.728-3.584-.81-.896-2.048-1.344-3.712-1.344-1.664 0-2.923.448-3.776 1.344-.853.896-1.43 2.09-1.728 3.584-.299 1.45-.448 3.008-.448 4.672v22.464c0 1.579.15 3.115.448 4.608.341 1.45.939 2.645 1.792 3.584.896.939 2.133 1.408 3.712 1.408zM33.061 53v-4.864l13.184-20.544a272.71 272.71 0 002.689-4.288 19.824 19.824 0 002.047-4.16c.555-1.493.832-3.2.832-5.12 0-2.39-.384-4.267-1.152-5.632-.767-1.365-2.111-2.048-4.032-2.048-1.62 0-2.88.448-3.776 1.344-.895.896-1.514 2.07-1.855 3.52-.342 1.45-.512 3.008-.512 4.672v1.728h-6.848v-1.792c0-3.115.405-5.781 1.215-8 .854-2.261 2.198-4.01 4.032-5.248C40.764 1.331 43.237.712 46.31.712c4.18 0 7.295 1.195 9.343 3.584 2.049 2.347 3.072 5.61 3.072 9.792 0 2.219-.277 4.16-.831 5.824a21.855 21.855 0 01-2.048 4.672 94.125 94.125 0 01-2.816 4.48L41.126 47.24H57.51V53H33.062z" fill="#B8BABC"/></svg>