<svg xmlns="http://www.w3.org/2000/svg" width="64" height="58" fill="none"><path fill-rule="evenodd" clip-rule="evenodd" d="M58.209 1H5.791a4.767 4.767 0 00-3.389 1.427A4.896 4.896 0 001 5.862v31.504c0 1.288.505 2.524 1.403 3.436a4.767 4.767 0 003.39 1.426h19.413a.904.904 0 00.643-.27.928.928 0 000-1.303.904.904 0 00-.643-.27H5.792a2.958 2.958 0 01-2.102-.887 3.038 3.038 0 01-.87-2.132V5.862c0-.8.313-1.566.87-2.132a2.958 2.958 0 012.102-.886H58.21c.788.002 1.544.32 2.102.886a3.04 3.04 0 01.87 2.132v31.504c0 .244.095.479.266.652a.904.904 0 001.286 0 .928.928 0 00.267-.652V5.862a4.896 4.896 0 00-1.403-3.435A4.767 4.767 0 0058.208 1zM26.175 33.494H8.704a.904.904 0 00-.643.27.928.928 0 000 1.304c.17.172.402.27.643.27h17.472a.9.9 0 00.643-.27.924.924 0 00.267-.652.933.933 0 00-.267-.652.91.91 0 00-.643-.27zm-6.855-16.8v-3.94a2.914 2.914 0 00-.837-2.042 2.836 2.836 0 00-2.014-.848h-5.824a2.836 2.836 0 00-2.015.848 2.913 2.913 0 00-.837 2.041v3.94c.002.766.302 1.5.837 2.042a2.836 2.836 0 002.015.847h5.824a2.836 2.836 0 002.014-.847 2.914 2.914 0 00.837-2.041zm-9.704 0v-1.045h1.03a.907.907 0 00.646-.271.931.931 0 000-1.309.907.907 0 00-.645-.271h-1.03v-1.045c0-.277.11-.542.302-.738a1.03 1.03 0 01.729-.307h2.002v6.03h-2.002c-.274 0-.536-.11-.73-.306a1.055 1.055 0 01-.303-.738h.002zm6.855 1.044h-2.003v-6.03h2.003c.273.001.535.111.728.307.193.196.302.461.303.738v1.045h-1.031a.907.907 0 00-.646.271.932.932 0 000 1.309.907.907 0 00.646.27h1.03v1.046c0 .277-.11.543-.303.738a1.026 1.026 0 01-.73.306h.003zm-8.676 10.77a.928.928 0 00.279.63.904.904 0 001.262 0 .928.928 0 00.279-.63v-1.966a.933.933 0 00-.254-.676.91.91 0 00-.656-.283.9.9 0 00-.656.283.926.926 0 00-.254.675v1.967zm2.912-1.966v1.966c.01.239.11.464.279.63a.904.904 0 001.262 0 .928.928 0 00.279-.63v-1.966a.93.93 0 00-.267-.654.906.906 0 00-1.29 0 .93.93 0 00-.267.653h.004zm2.912 0v1.966a.928.928 0 00.279.63.904.904 0 001.262 0 .928.928 0 00.279-.63v-1.966a.933.933 0 00-.267-.653.91.91 0 00-.644-.27.902.902 0 00-.644.27.925.925 0 00-.267.652h.002zm2.912 0v1.966c.01.239.11.464.279.63a.904.904 0 001.262 0 .928.928 0 00.279-.63v-1.966a.933.933 0 00-.267-.653.91.91 0 00-.644-.27.902.902 0 00-.644.27.922.922 0 00-.267.652h.002zm5.703 1.966v-1.966a.934.934 0 00-.254-.676.912.912 0 00-.656-.283.9.9 0 00-.656.283.925.925 0 00-.254.675v1.967a.927.927 0 00.285.616.904.904 0 001.248 0 .927.927 0 00.285-.616h.002zm2.912 0v-1.966a.934.934 0 00-.254-.676.912.912 0 00-.656-.283.9.9 0 00-.656.283.926.926 0 00-.254.675v1.967a.927.927 0 00.285.616.904.904 0 001.248 0 .927.927 0 00.285-.616h.002zm2.002-2.895a.908.908 0 00-.645.273.933.933 0 00-.265.655v1.967a.932.932 0 00.278.63.904.904 0 001.263 0 .923.923 0 00.278-.63v-1.966a.933.933 0 00-.265-.656.908.908 0 00-.645-.273h0zm3.822 2.895v-1.966a.934.934 0 00-.254-.676.91.91 0 00-.656-.283.9.9 0 00-.656.283.925.925 0 00-.254.675v1.967a.927.927 0 00.285.616.904.904 0 001.248 0 .928.928 0 00.285-.616h.002zm20.444-8.926a4.763 4.763 0 003.39-1.423 4.892 4.892 0 001.405-3.436 4.892 4.892 0 00-1.405-3.435 4.763 4.763 0 00-3.39-1.424H45.59a4.763 4.763 0 00-3.39 1.424 4.892 4.892 0 00-1.405 3.435 4.89 4.89 0 001.404 3.436 4.763 4.763 0 003.39 1.423h5.825zm-8.797-4.862a3.036 3.036 0 01.872-2.128 2.957 2.957 0 012.1-.884h5.825c.789 0 1.546.318 2.104.883.558.566.871 1.333.871 2.132 0 .8-.313 1.567-.871 2.132a2.956 2.956 0 01-2.104.883H45.59c-.79 0-1.546-.319-2.104-.885a3.039 3.039 0 01-.87-2.133h.001zm1.032 10.893a15.341 15.341 0 00-8.608 2.637 15.65 15.65 0 00-5.711 7.04 15.889 15.889 0 00-.888 9.068 15.761 15.761 0 004.234 8.04 15.424 15.424 0 007.93 4.3c3.004.606 6.119.296 8.95-.891a15.533 15.533 0 006.952-5.78 15.843 15.843 0 002.611-8.72 15.81 15.81 0 00-4.533-11.09 15.393 15.393 0 00-10.94-4.604h.003zm0 29.543a13.535 13.535 0 01-7.595-2.326 13.809 13.809 0 01-5.038-6.21 14.018 14.018 0 01-.784-8.002 13.904 13.904 0 013.735-7.093 13.61 13.61 0 016.995-3.794 13.496 13.496 0 017.896.784 13.704 13.704 0 016.135 5.098 13.979 13.979 0 012.305 7.693 13.953 13.953 0 01-4 9.786 13.584 13.584 0 01-9.651 4.064h.002zm7.438-21.396a.913.913 0 00-1.287 0L36.212 47.548a.923.923 0 00-.267.652.934.934 0 00.562.855.892.892 0 00.992-.202L51.087 35.07a.937.937 0 00-.002-1.311h.002zm-11.806 6.502a4.273 4.273 0 002.398-.734 4.36 4.36 0 001.59-1.96 4.425 4.425 0 00.249-2.526 4.388 4.388 0 00-1.18-2.24 4.296 4.296 0 00-2.208-1.198 4.26 4.26 0 00-2.492.248 4.319 4.319 0 00-1.937 1.61 4.412 4.412 0 00.533 5.516 4.285 4.285 0 003.043 1.283h.004zm0-6.891a2.47 2.47 0 011.388.423c.41.277.731.671.92 1.133a2.559 2.559 0 01-.539 2.757 2.463 2.463 0 01-2.72.547 2.501 2.501 0 01-1.119-.934 2.551 2.551 0 01-.417-1.406c0-.668.262-1.308.727-1.78a2.47 2.47 0 011.756-.74h.004zm9.704 7.997a4.272 4.272 0 00-2.398.734 4.358 4.358 0 00-1.59 1.96 4.426 4.426 0 00-.248 2.526 4.389 4.389 0 001.179 2.24 4.296 4.296 0 002.208 1.197 4.261 4.261 0 002.493-.248 4.326 4.326 0 001.936-1.61 4.413 4.413 0 00-.534-5.517 4.285 4.285 0 00-3.046-1.282zm0 6.89a2.46 2.46 0 01-1.381-.425 2.513 2.513 0 01-.916-1.13 2.552 2.552 0 01.54-2.747 2.457 2.457 0 012.71-.546c.454.191.842.514 1.115.929a2.544 2.544 0 01-.31 3.181 2.47 2.47 0 01-1.758.738z" fill="#111827" stroke="#111827" stroke-width=".7"/></svg>