<svg xmlns="http://www.w3.org/2000/svg" width="64" height="55" fill="none"><path fill-rule="evenodd" clip-rule="evenodd" d="M58.316 54H5.684a4.653 4.653 0 01-3.31-1.4A4.825 4.825 0 011 49.23V14.975a4.825 4.825 0 011.375-3.37 4.653 4.653 0 013.31-1.4h4.171V8.038a.875.875 0 01.252-.606.843.843 0 01.598-.251h5.97c.223 0 .438.09.595.25a.87.87 0 01.247.607v2.167h5.626v-3.11A6.16 6.16 0 0124.9 2.788 5.94 5.94 0 0129.13 1h5.74a5.94 5.94 0 014.23 1.788 6.16 6.16 0 011.756 4.307v3.11h5.626V8.038c0-.227.089-.445.247-.606a.834.834 0 01.595-.251h5.97c.224 0 .439.09.598.25.159.161.25.38.252.607v2.167h4.172a4.653 4.653 0 013.31 1.4A4.825 4.825 0 0163 14.975V49.23a4.825 4.825 0 01-1.375 3.37 4.653 4.653 0 01-3.31 1.4zM5.684 11.92a2.978 2.978 0 00-2.12.896 3.089 3.089 0 00-.88 2.159V49.23c.001.81.318 1.586.88 2.16a2.978 2.978 0 002.12.895h52.632a2.978 2.978 0 002.12-.896c.562-.573.879-1.35.88-2.159V14.975a3.088 3.088 0 00-.88-2.16 2.978 2.978 0 00-2.12-.895H5.684zm42.482-1.715h4.286V8.903h-4.286v1.302zm-23.33 0h14.328v-3.11a4.417 4.417 0 00-1.256-3.096 4.26 4.26 0 00-3.038-1.284h-5.74a4.26 4.26 0 00-3.038 1.284 4.418 4.418 0 00-1.256 3.096v3.11zm-13.288 0h4.286V8.903h-4.286v1.302zm17.199 32.322h-7.233a.834.834 0 01-.596-.251.865.865 0 01-.246-.606v-7.374c0-.227.088-.445.246-.606a.834.834 0 01.596-.25h7.233c.223 0 .437.09.595.25.158.161.247.38.247.606v7.374a.865.865 0 01-.247.606.834.834 0 01-.595.251zm-6.391-1.715h5.549v-5.658h-5.55v5.658zM32.62 31.78a.859.859 0 01-.597-.25l-3.873-3.943a.874.874 0 010-1.216l3.873-3.944a.866.866 0 011.194 0l3.866 3.944a.848.848 0 01.252.608.862.862 0 01-.252.608l-3.866 3.944a.858.858 0 01-.597.249zm-2.679-4.801l2.679 2.728 2.68-2.728-2.68-2.728-2.679 2.728zm-16.556 4.77a1.81 1.81 0 01-1.167-.426 1.868 1.868 0 01-.632-1.086l-.513-2.806a.129.129 0 00-.028-.063.124.124 0 00-.056-.038l-2.564-1.154a1.836 1.836 0 01-.766-.654 1.885 1.885 0 01.628-2.674l2.465-1.372a.15.15 0 00.068-.109l.284-2.837a1.87 1.87 0 01.368-.952c.209-.276.489-.487.81-.608a1.788 1.788 0 011.891.399l2.036 1.956a.16.16 0 00.1.039l2.77-.608c.333-.072.678-.047.998.07.32.117.601.324.812.595a1.888 1.888 0 01.219 1.946l-1.202 2.58a.16.16 0 00.008.132l1.408 2.471a1.882 1.882 0 01-.056 1.96 1.832 1.832 0 01-.76.662c-.31.144-.653.197-.99.153l-2.786-.367a.132.132 0 00-.115.047l-1.875 2.128a1.805 1.805 0 01-1.355.616zm-.46-13.172a.139.139 0 00-.096.033.144.144 0 00-.049.091l-.283 2.845c-.03.3-.131.587-.296.837-.164.25-.386.455-.646.597l-2.457 1.372a.126.126 0 00-.069.133.12.12 0 00.077.117l2.564 1.16a1.827 1.827 0 011.056 1.35l.52 2.805a.145.145 0 00.05.084.141.141 0 00.089.033.132.132 0 00.1-.047l1.875-2.128a1.777 1.777 0 011.584-.6l2.786.367a.153.153 0 00.138-.078.128.128 0 000-.133l-1.408-2.47a1.886 1.886 0 01-.077-1.73l1.202-2.58a.14.14 0 00-.017-.147.136.136 0 00-.136-.048l-2.74.6a1.81 1.81 0 01-1.639-.468l-2.036-1.956a.12.12 0 00-.092-.04zm35.815 6.796a4.13 4.13 0 01-2.325-.716 4.244 4.244 0 01-1.543-1.911 4.332 4.332 0 01-.239-2.462 4.285 4.285 0 011.145-2.182 4.161 4.161 0 012.143-1.166 4.113 4.113 0 012.418.243 4.2 4.2 0 011.877 1.57c.46.702.704 1.526.703 2.369a4.3 4.3 0 01-1.225 3.007 4.147 4.147 0 01-2.954 1.248zm0-6.796c-.494 0-.976.149-1.386.428-.41.28-.73.676-.92 1.14a2.585 2.585 0 00-.141 1.468c.096.493.334.946.682 1.301a2.458 2.458 0 002.72.551 2.506 2.506 0 001.12-.936 2.575 2.575 0 00-.31-3.208 2.474 2.474 0 00-1.765-.744z" fill="#111827" stroke="#111827" stroke-width=".8"/></svg>