<svg xmlns="http://www.w3.org/2000/svg" width="70" height="70" fill="none"><path fill-rule="evenodd" clip-rule="evenodd" d="M27.176 14.724a7.73 7.73 0 00-7.154 4.769 7.741 7.741 0 005.63 10.557 7.73 7.73 0 007.942-3.292 7.74 7.74 0 00-6.418-12.034zm0 13.266a5.524 5.524 0 01-5.114-3.404 5.532 5.532 0 014.017-7.546 5.523 5.523 0 015.677 2.345 5.532 5.532 0 01-.68 6.98 5.529 5.529 0 01-3.9 1.625zM41.935 7.671A21.108 21.108 0 0026.98 1.458a21.1 21.1 0 00-14.954 6.213c-7.392 7.406-8.308 21.344-1.99 29.79L26.982 61.98l16.917-24.484c6.347-8.48 5.428-22.418-1.963-29.824zm.175 28.531L26.981 58.1 11.828 36.168C6.094 28.503 6.916 15.916 13.59 9.233a18.922 18.922 0 0120.644-4.114 18.925 18.925 0 016.144 4.114c6.669 6.683 7.49 19.27 1.732 26.97z" fill="#111827" stroke="#111827"/><path d="M45.208 38.646c5.236 0 9.48-2.285 9.48-5.104 0-2.82-4.245-5.105-9.48-5.105s-9.479 2.286-9.479 5.105c0 2.819 4.244 5.104 9.48 5.104zM30.526 57.792c3.24 1.624 6.89.897 8.154-1.623 1.263-2.52-.34-5.88-3.58-7.503-3.241-1.624-6.892-.897-8.155 1.623-1.262 2.52.34 5.88 3.58 7.503z" fill="#EDF0F1"/><path d="M39.74 51.041c4.228 0 7.656-3.264 7.656-7.291 0-4.027-3.428-7.292-7.656-7.292-4.229 0-7.657 3.265-7.657 7.292 0 4.027 3.428 7.291 7.657 7.291z" fill="#EDF0F1"/><path fill-rule="evenodd" clip-rule="evenodd" d="M60.972 62.533l-7.82-7.769a13.521 13.521 0 003.368-8.937 13.695 13.695 0 00-2.996-8.606 13.667 13.667 0 00-16.77-3.707 13.682 13.682 0 00-6.339 6.543 13.698 13.698 0 004.219 16.66 13.67 13.67 0 0017.163-.6l7.819 7.768a.97.97 0 001.045.21.961.961 0 00.31-1.562zm-29.97-16.706a11.809 11.809 0 017.224-10.96 11.785 11.785 0 0112.88 2.508 11.805 11.805 0 012.59 12.872 11.787 11.787 0 01-10.903 7.304 11.75 11.75 0 01-8.322-3.419 11.775 11.775 0 01-3.473-8.305H31z" fill="#111827" stroke="#111827"/></svg>